<?xml version="1.0" encoding="UTF-8"?>
<svg width="700pt" height="700pt" version="1.1" viewBox="0 -100 700 700" xmlns="http://www.w3.org/2000/svg" xmlns:xlink="http://www.w3.org/1999/xlink">
 <defs>
  <symbol id="w" overflow="visible">
   <path d="m22.172-1.3281c-1.1484 0.59375-2.3398 1.043-3.5781 1.3438-1.2422 0.30078-2.5312 0.45312-3.875 0.45312-4.0234 0-7.2109-1.1172-9.5625-3.3594-2.3438-2.25-3.5156-5.2969-3.5156-9.1406 0-3.8633 1.1719-6.9141 3.5156-9.1562 2.3516-2.25 5.5391-3.375 9.5625-3.375 1.3438 0 2.6328 0.15234 3.875 0.45312 1.2383 0.30469 2.4297 0.75 3.5781 1.3438v4.9844c-1.1562-0.78125-2.2969-1.3516-3.4219-1.7188-1.1172-0.36328-2.293-0.54688-3.5312-0.54688-2.2188 0-3.9648 0.71484-5.2344 2.1406-1.2734 1.418-1.9062 3.375-1.9062 5.875 0 2.4805 0.63281 4.4336 1.9062 5.8594 1.2695 1.418 3.0156 2.125 5.2344 2.125 1.2383 0 2.4141-0.17969 3.5312-0.54688 1.125-0.36328 2.2656-0.9375 3.4219-1.7188z"/>
  </symbol>
  <symbol id="d" overflow="visible">
   <path d="m16.219-13.172c-0.5-0.23828-1-0.41016-1.5-0.51562-0.5-0.11328-1.0078-0.17188-1.5156-0.17188-1.4922 0-2.6367 0.48047-3.4375 1.4375-0.80469 0.94922-1.2031 2.3086-1.2031 4.0781v8.3438h-5.7812v-18.094h5.7812v2.9688c0.73828-1.1875 1.5938-2.0508 2.5625-2.5938 0.96875-0.53906 2.125-0.8125 3.4688-0.8125 0.1875 0 0.39453 0.011719 0.625 0.03125 0.22656 0.011719 0.55469 0.042969 0.98438 0.09375z"/>
  </symbol>
  <symbol id="a" overflow="visible">
   <path d="m20.844-9.0938v1.6406h-13.531c0.14453 1.3672 0.63281 2.3867 1.4688 3.0625 0.84375 0.67969 2.0195 1.0156 3.5312 1.0156 1.2188 0 2.4609-0.17578 3.7344-0.53125 1.2812-0.36328 2.5938-0.91406 3.9375-1.6562v4.4688c-1.3672 0.51172-2.7344 0.89844-4.1094 1.1562-1.3672 0.26953-2.7305 0.40625-4.0938 0.40625-3.2734 0-5.8203-0.83203-7.6406-2.5-1.8125-1.6641-2.7188-4-2.7188-7 0-2.9453 0.89062-5.2656 2.6719-6.9531 1.7812-1.6953 4.2344-2.5469 7.3594-2.5469 2.8438 0 5.1172 0.85938 6.8281 2.5781 1.707 1.7109 2.5625 3.9961 2.5625 6.8594zm-5.9375-1.9219c0-1.1016-0.32422-1.9883-0.96875-2.6562-0.64844-0.67578-1.4844-1.0156-2.5156-1.0156-1.1172 0-2.0273 0.32031-2.7344 0.95312-0.69922 0.625-1.1328 1.5312-1.2969 2.7188z"/>
  </symbol>
  <symbol id="m" overflow="visible">
   <path d="m10.891-8.1406c-1.2109 0-2.1211 0.20312-2.7344 0.60938-0.60547 0.40625-0.90625 1.0117-0.90625 1.8125 0 0.73047 0.24219 1.3047 0.73438 1.7188 0.48828 0.41797 1.1719 0.625 2.0469 0.625 1.0938 0 2.0078-0.39062 2.75-1.1719 0.73828-0.78125 1.1094-1.7578 1.1094-2.9375v-0.65625zm8.8438-2.1875v10.328h-5.8438v-2.6875c-0.77344 1.1055-1.6406 1.9062-2.6094 2.4062s-2.1523 0.75-3.5469 0.75c-1.875 0-3.3984-0.54688-4.5625-1.6406-1.168-1.0938-1.75-2.5078-1.75-4.25 0-2.125 0.72656-3.6797 2.1875-4.6719 1.457-1 3.75-1.5 6.875-1.5h3.4062v-0.4375c0-0.91406-0.35938-1.5859-1.0781-2.0156-0.71875-0.42578-1.8438-0.64062-3.375-0.64062-1.2422 0-2.3984 0.125-3.4688 0.375-1.0625 0.25-2.0547 0.62109-2.9688 1.1094v-4.4062c1.2383-0.30078 2.4844-0.53125 3.7344-0.6875s2.5-0.23438 3.75-0.23438c3.2695 0 5.6289 0.64844 7.0781 1.9375 1.4453 1.2812 2.1719 3.3711 2.1719 6.2656z"/>
  </symbol>
  <symbol id="c" overflow="visible">
   <path d="m9.0938-23.234v5.1406h5.9688v4.125h-5.9688v7.6875c0 0.83594 0.16406 1.4023 0.5 1.7031 0.33203 0.29297 1 0.4375 2 0.4375h2.9688v4.1406h-4.9688c-2.2812 0-3.9023-0.47266-4.8594-1.4219-0.94922-0.95703-1.4219-2.5781-1.4219-4.8594v-7.6875h-2.875v-4.125h2.875v-5.1406z"/>
  </symbol>
  <symbol id="l" overflow="visible">
   <path d="m15.094-15.453v-9.6875h5.8125v25.141h-5.8125v-2.625c-0.80469 1.0742-1.6836 1.8594-2.6406 2.3594-0.96094 0.48828-2.0703 0.73438-3.3281 0.73438-2.2305 0-4.0625-0.88281-5.5-2.6562-1.4297-1.7695-2.1406-4.0508-2.1406-6.8438 0-2.7891 0.71094-5.0703 2.1406-6.8438 1.4375-1.7695 3.2695-2.6562 5.5-2.6562 1.25 0 2.3516 0.25 3.3125 0.75 0.96875 0.5 1.8516 1.2773 2.6562 2.3281zm-3.8125 11.719c1.2383 0 2.1797-0.45312 2.8281-1.3594 0.65625-0.90625 0.98438-2.2188 0.98438-3.9375 0-1.7266-0.32812-3.0391-0.98438-3.9375-0.64844-0.90625-1.5898-1.3594-2.8281-1.3594-1.2305 0-2.1719 0.45312-2.8281 1.3594-0.64844 0.89844-0.96875 2.2109-0.96875 3.9375 0 1.7188 0.32031 3.0312 0.96875 3.9375 0.65625 0.90625 1.5977 1.3594 2.8281 1.3594z"/>
  </symbol>
  <symbol id="k" overflow="visible">
   <path d="m12.406-3.7344c1.2383 0 2.1797-0.45312 2.8281-1.3594 0.65625-0.90625 0.98438-2.2188 0.98438-3.9375 0-1.7266-0.32812-3.0391-0.98438-3.9375-0.64844-0.90625-1.5898-1.3594-2.8281-1.3594-1.2422 0-2.1953 0.45312-2.8594 1.3594-0.65625 0.90625-0.98438 2.2188-0.98438 3.9375 0 1.7109 0.32812 3.0234 0.98438 3.9375 0.66406 0.90625 1.6172 1.3594 2.8594 1.3594zm-3.8438-11.719c0.80078-1.0508 1.6875-1.8281 2.6562-2.3281s2.082-0.75 3.3438-0.75c2.2266 0 4.0547 0.88672 5.4844 2.6562 1.4375 1.7734 2.1562 4.0547 2.1562 6.8438 0 2.793-0.71875 5.0742-2.1562 6.8438-1.4297 1.7734-3.2578 2.6562-5.4844 2.6562-1.2617 0-2.375-0.25-3.3438-0.75s-1.8555-1.2812-2.6562-2.3438v2.625h-5.7812v-25.141h5.7812z"/>
  </symbol>
  <symbol id="j" overflow="visible">
   <path d="m0.40625-18.094h5.7812l4.8594 12.281 4.1406-12.281h5.7812l-7.6094 19.812c-0.76172 2.0078-1.6523 3.4141-2.6719 4.2188-1.0234 0.80078-2.3672 1.2031-4.0312 1.2031h-3.3438v-3.7969h1.8125c0.97656 0 1.6914-0.15625 2.1406-0.46875 0.44531-0.3125 0.79688-0.87109 1.0469-1.6719l0.15625-0.51562z"/>
  </symbol>
  <symbol id="i" overflow="visible">
   <path d="m0.15625-24.125h6.2656l6.3906 17.812 6.3906-17.812h6.25l-8.9375 24.125h-7.4219z"/>
  </symbol>
  <symbol id="h" overflow="visible">
   <path d="m2.7812-18.094h5.7812v18.094h-5.7812zm0-7.0469h5.7812v4.7188h-5.7812z"/>
  </symbol>
  <symbol id="g" overflow="visible">
   <path d="m17.406-17.531v4.7188c-0.79297-0.53906-1.5859-0.9375-2.375-1.1875-0.79297-0.25781-1.6094-0.39062-2.4531-0.39062-1.625 0-2.8867 0.47656-3.7812 1.4219-0.89844 0.9375-1.3438 2.25-1.3438 3.9375s0.44531 3.0078 1.3438 3.9531c0.89453 0.9375 2.1562 1.4062 3.7812 1.4062 0.89453 0 1.75-0.12891 2.5625-0.39062 0.82031-0.26953 1.5781-0.67188 2.2656-1.2031v4.7344c-0.90625 0.33594-1.8281 0.58203-2.7656 0.75-0.92969 0.16406-1.8594 0.25-2.7969 0.25-3.2617 0-5.8125-0.83594-7.6562-2.5156-1.8438-1.6758-2.7656-4.0039-2.7656-6.9844 0-2.9883 0.92188-5.3164 2.7656-6.9844 1.8438-1.6758 4.3945-2.5156 7.6562-2.5156 0.94531 0 1.8789 0.085938 2.7969 0.25 0.92578 0.16797 1.8477 0.41797 2.7656 0.75z"/>
  </symbol>
  <symbol id="b" overflow="visible">
   <path d="m11.391-14.391c-1.2812 0-2.2617 0.46094-2.9375 1.375-0.66797 0.91797-1 2.2461-1 3.9844 0 1.7305 0.33203 3.0586 1 3.9844 0.67578 0.91797 1.6562 1.375 2.9375 1.375 1.2578 0 2.2227-0.45703 2.8906-1.375 0.66406-0.92578 1-2.2539 1-3.9844 0-1.7383-0.33594-3.0664-1-3.9844-0.66797-0.91406-1.6328-1.375-2.8906-1.375zm0-4.1406c3.1133 0 5.5469 0.83984 7.2969 2.5156 1.75 1.6797 2.625 4.0078 2.625 6.9844 0 2.9688-0.875 5.2969-2.625 6.9844-1.75 1.6797-4.1836 2.5156-7.2969 2.5156-3.125 0-5.5703-0.83594-7.3281-2.5156-1.7617-1.6875-2.6406-4.0156-2.6406-6.9844 0-2.9766 0.87891-5.3047 2.6406-6.9844 1.7578-1.6758 4.2031-2.5156 7.3281-2.5156z"/>
  </symbol>
  <symbol id="e" overflow="visible">
   <path d="m20.969-11.016v11.016h-5.8125v-8.4375c0-1.5625-0.039062-2.6406-0.10938-3.2344-0.0625-0.59375-0.18359-1.0234-0.35938-1.2969-0.23047-0.38281-0.53906-0.67969-0.92188-0.89062-0.38672-0.20703-0.82812-0.3125-1.3281-0.3125-1.2109 0-2.1562 0.46875-2.8438 1.4062-0.6875 0.92969-1.0312 2.2148-1.0312 3.8594v8.9062h-5.7812v-18.094h5.7812v2.6406c0.875-1.0508 1.8008-1.8281 2.7812-2.3281 0.97656-0.5 2.0625-0.75 3.25-0.75 2.082 0 3.6641 0.64062 4.75 1.9219 1.082 1.2812 1.625 3.1484 1.625 5.5938z"/>
  </symbol>
  <symbol id="f" overflow="visible">
   <path d="m16.922-17.531v4.3906c-1.2422-0.50781-2.4375-0.89453-3.5938-1.1562-1.1484-0.25781-2.2344-0.39062-3.2656-0.39062-1.0938 0-1.9141 0.14062-2.4531 0.42188-0.53125 0.27344-0.79688 0.6875-0.79688 1.25 0 0.46875 0.20312 0.82812 0.60938 1.0781s1.1289 0.43359 2.1719 0.54688l1.0156 0.14062c2.9688 0.375 4.9609 0.99609 5.9844 1.8594 1.0195 0.86719 1.5312 2.2188 1.5312 4.0625 0 1.9297-0.71484 3.375-2.1406 4.3438-1.418 0.96875-3.5391 1.4531-6.3594 1.4531-1.1875 0-2.4219-0.09375-3.7031-0.28125s-2.5938-0.46875-3.9375-0.84375v-4.4062c1.1562 0.5625 2.3359 0.98438 3.5469 1.2656 1.2188 0.28125 2.4531 0.42188 3.7031 0.42188 1.125 0 1.9727-0.15625 2.5469-0.46875 0.57031-0.3125 0.85938-0.77344 0.85938-1.3906 0-0.51953-0.19922-0.90625-0.59375-1.1562-0.39844-0.25-1.1797-0.44531-2.3438-0.59375l-1.0312-0.125c-2.5742-0.32031-4.375-0.92188-5.4062-1.7969s-1.5469-2.1953-1.5469-3.9688c0-1.9141 0.65625-3.3359 1.9688-4.2656 1.3125-0.92578 3.3281-1.3906 6.0469-1.3906 1.0625 0 2.1758 0.085938 3.3438 0.25 1.1758 0.15625 2.457 0.40625 3.8438 0.75z"/>
  </symbol>
  <symbol id="v" overflow="visible">
   <path d="m9.2656-19.422v14.719h2.2188c2.5391 0 4.4844-0.62891 5.8281-1.8906 1.3438-1.2578 2.0156-3.0938 2.0156-5.5 0-2.3828-0.67188-4.2031-2.0156-5.4531-1.3359-1.25-3.2773-1.875-5.8281-1.875zm-6.2344-4.7031h6.5625c3.6641 0 6.3945 0.26172 8.1875 0.78125 1.7891 0.52344 3.3281 1.4062 4.6094 2.6562 1.1328 1.0938 1.9727 2.3555 2.5156 3.7812 0.55078 1.418 0.82812 3.0234 0.82812 4.8125 0 1.8242-0.27734 3.4492-0.82812 4.875-0.54297 1.4297-1.3828 2.6875-2.5156 3.7812-1.293 1.25-2.8438 2.1367-4.6562 2.6562-1.8047 0.52344-4.5156 0.78125-8.1406 0.78125h-6.5625z"/>
  </symbol>
  <symbol id="u" overflow="visible">
   <path d="m15.094-3.0625c-0.80469 1.0547-1.6836 1.8281-2.6406 2.3281-0.96094 0.49219-2.0703 0.73438-3.3281 0.73438-2.2109 0-4.0391-0.86719-5.4844-2.6094-1.4375-1.7383-2.1562-3.957-2.1562-6.6562 0-2.6953 0.71875-4.9102 2.1562-6.6406 1.4453-1.7266 3.2734-2.5938 5.4844-2.5938 1.2578 0 2.3672 0.25 3.3281 0.75 0.95703 0.49219 1.8359 1.2656 2.6406 2.3281v-2.6719h5.8125v16.266c0 2.9062-0.91797 5.125-2.75 6.6562-1.8359 1.5391-4.5 2.3125-8 2.3125-1.125 0-2.2188-0.089844-3.2812-0.26562-1.0547-0.16797-2.1094-0.42969-3.1719-0.78125v-4.5156c1.0078 0.58203 2 1.0156 2.9688 1.2969 0.96875 0.28906 1.9414 0.4375 2.9219 0.4375 1.8945 0 3.2852-0.41797 4.1719-1.25 0.88281-0.82422 1.3281-2.1172 1.3281-3.8906zm-3.8125-11.266c-1.1992 0-2.1328 0.44531-2.7969 1.3281-0.66797 0.875-1 2.1211-1 3.7344 0 1.668 0.32031 2.9297 0.96875 3.7812 0.64453 0.85547 1.5859 1.2812 2.8281 1.2812 1.207 0 2.1445-0.4375 2.8125-1.3125 0.66406-0.88281 1-2.1328 1-3.75 0-1.6133-0.33594-2.8594-1-3.7344-0.66797-0.88281-1.6055-1.3281-2.8125-1.3281z"/>
  </symbol>
  <symbol id="t" overflow="visible">
   <path d="m14.688-25.141v3.7969h-3.2031c-0.8125 0-1.3828 0.15234-1.7031 0.45312-0.32422 0.29297-0.48438 0.80469-0.48438 1.5312v1.2656h4.9375v4.125h-4.9375v13.969h-5.7969v-13.969h-2.875v-4.125h2.875v-1.2656c0-1.9688 0.54688-3.4219 1.6406-4.3594 1.1016-0.94531 2.8125-1.4219 5.125-1.4219z"/>
  </symbol>
  <symbol id="s" overflow="visible">
   <path d="m19.547-15.094c0.73828-1.1133 1.6094-1.9609 2.6094-2.5469 1.0078-0.59375 2.1172-0.89062 3.3281-0.89062 2.0703 0 3.6484 0.64062 4.7344 1.9219 1.0938 1.2812 1.6406 3.1484 1.6406 5.5938v11.016h-5.8125v-9.4375c0.007813-0.13281 0.015625-0.27344 0.015625-0.42188 0.007812-0.15625 0.015625-0.375 0.015625-0.65625 0-1.2812-0.1875-2.207-0.5625-2.7812-0.375-0.58203-0.98438-0.875-1.8281-0.875-1.0938 0-1.9453 0.45312-2.5469 1.3594-0.59375 0.90625-0.90234 2.2148-0.92188 3.9219v8.8906h-5.8281v-9.4375c0-2-0.17188-3.2852-0.51562-3.8594-0.34375-0.58203-0.96094-0.875-1.8438-0.875-1.1055 0-1.9609 0.46094-2.5625 1.375-0.60547 0.90625-0.90625 2.2031-0.90625 3.8906v8.9062h-5.8125v-18.094h5.8125v2.6406c0.70703-1.0195 1.5195-1.7852 2.4375-2.2969 0.92578-0.51953 1.9453-0.78125 3.0625-0.78125 1.25 0 2.3516 0.30469 3.3125 0.90625 0.95703 0.60547 1.6797 1.4492 2.1719 2.5312z"/>
  </symbol>
  <symbol id="r" overflow="visible">
   <path d="m20.969-11.016v11.016h-5.8125v-8.4062c0-1.582-0.039062-2.6719-0.10938-3.2656-0.0625-0.59375-0.18359-1.0234-0.35938-1.2969-0.23047-0.38281-0.53906-0.67969-0.92188-0.89062-0.38672-0.20703-0.82812-0.3125-1.3281-0.3125-1.2109 0-2.1562 0.46875-2.8438 1.4062-0.6875 0.92969-1.0312 2.2148-1.0312 3.8594v8.9062h-5.7812v-25.141h5.7812v9.6875c0.875-1.0508 1.8008-1.8281 2.7812-2.3281 0.97656-0.5 2.0625-0.75 3.25-0.75 2.082 0 3.6641 0.64062 4.75 1.9219 1.082 1.2812 1.625 3.1484 1.625 5.5938z"/>
  </symbol>
  <symbol id="q" overflow="visible">
   <path d="m3.0312-24.125h6.9531l8.7812 16.547v-16.547h5.8906v24.125h-6.9531l-8.7656-16.547v16.547h-5.9062z"/>
  </symbol>
  <symbol id="p" overflow="visible">
   <path d="m2.5781-7.0469v-11.047h5.8281v1.8125c0 0.98047-0.007812 2.2109-0.015625 3.6875-0.011719 1.4805-0.015625 2.4688-0.015625 2.9688 0 1.4492 0.035156 2.4961 0.10938 3.1406 0.070313 0.63672 0.20312 1.1016 0.39062 1.3906 0.23828 0.375 0.54688 0.66797 0.92188 0.875 0.38281 0.21094 0.82812 0.3125 1.3281 0.3125 1.1953 0 2.1406-0.46094 2.8281-1.3906 0.69531-0.92578 1.0469-2.2109 1.0469-3.8594v-8.9375h5.7812v18.094h-5.7812v-2.625c-0.875 1.0625-1.8047 1.8438-2.7812 2.3438-0.96875 0.5-2.043 0.75-3.2188 0.75-2.0938 0-3.6875-0.64062-4.7812-1.9219s-1.6406-3.1445-1.6406-5.5938z"/>
  </symbol>
  <symbol id="o" overflow="visible">
   <path d="m3.0312-24.125h10.328c3.0703 0 5.4258 0.68359 7.0625 2.0469 1.6445 1.3672 2.4688 3.3086 2.4688 5.8281 0 2.5312-0.82422 4.4805-2.4688 5.8438-1.6367 1.3555-3.9922 2.0312-7.0625 2.0312h-4.0938v8.375h-6.2344zm6.2344 4.5156v6.7344h3.4375c1.207 0 2.1406-0.28906 2.7969-0.875 0.65625-0.59375 0.98438-1.4258 0.98438-2.5 0-1.082-0.32812-1.9102-0.98438-2.4844-0.65625-0.58203-1.5898-0.875-2.7969-0.875z"/>
  </symbol>
  <symbol id="n" overflow="visible">
   <path d="m2.7812-18.094h5.7812v17.766c0 2.4258-0.58594 4.2734-1.75 5.5469-1.1562 1.2812-2.8398 1.9219-5.0469 1.9219h-2.8594v-3.7969h1c1.0938 0 1.8438-0.25 2.25-0.75 0.41406-0.49219 0.625-1.4648 0.625-2.9219zm0-7.0469h5.7812v4.7188h-5.7812z"/>
  </symbol>
 </defs>
 <polygon fill="#B9B9B9" points="700,600 0,600 0,-100 700,-100 700,600"/>
 <polygon fill="none" stroke="#757575" stroke-width="35" points="700,600 0,600 0,-100 700,-100 700,600"/>
 <g>
  <path d="m613.45 263.45h-74.27c-3.2461-38.977-18.512-75.984-43.691-105.91l16.812-16.746 0.003906-0.003906c3.1875-3.0859 5-7.3281 5.0312-11.766 0.035156-4.4375-1.7188-8.7031-4.8633-11.836-3.1406-3.1367-7.4102-4.875-11.852-4.832-4.4375 0.046875-8.6719 1.8711-11.75 5.0703l-16.746 16.746c-29.93-25.18-66.938-40.445-105.91-43.688v-73.941c0-5.9102-3.1562-11.375-8.2773-14.328-5.1172-2.957-11.426-2.957-16.547 0-5.1211 2.9531-8.2734 8.418-8.2734 14.328v74.203c-38.852 3.3203-75.715 18.605-105.51 43.758l-16.75-16.75c-4.1953-4.0664-10.227-5.6172-15.867-4.0781-5.6367 1.5352-10.047 5.9336-11.598 11.566-1.5547 5.6367-0.019531 11.672 4.0352 15.879l16.812 16.812c-25.031 29.84-40.199 66.699-43.426 105.52h-74.27c-5.9102 0-11.375 3.1523-14.328 8.2734-2.957 5.1211-2.957 11.426 0 16.547 2.9531 5.1211 8.418 8.2734 14.328 8.2734h74.27c3.3906 38.824 18.645 75.66 43.691 105.52l-16.746 16.746h-0.003907c-3.0781 3.1211-4.8047 7.332-4.8047 11.715 0 4.3867 1.7266 8.5977 4.8047 11.719 3.1133 3.0938 7.3281 4.832 11.719 4.832 4.3906 0 8.6016-1.7383 11.715-4.832l16.746-16.746v-0.003906c29.855 25.047 66.691 40.301 105.52 43.691v74.27c0 5.9102 3.1523 11.375 8.2734 14.328 5.1211 2.957 11.426 2.957 16.547 0 5.1211-2.9531 8.2734-8.418 8.2734-14.328v-74.27c38.852-3.3203 75.719-18.605 105.52-43.754l16.812 16.812c3.1055 3.1055 7.3242 4.8477 11.715 4.832 4.3789 0.027343 8.5781-1.7148 11.652-4.832 3.1133-3.1055 4.8594-7.3203 4.8594-11.719 0-4.3945-1.7461-8.6094-4.8594-11.715l-16.746-16.746h-0.003906c25.152-29.797 40.438-66.664 43.758-105.52h74.203c5.9102 0 11.375-3.1523 14.328-8.2734 2.957-5.1211 2.957-11.426 0-16.547-2.9531-5.1211-8.418-8.2734-14.328-8.2734zm-282.98-26.477v-0.003906c-4.0703 10.836-12.719 19.316-23.633 23.168-4.2344 1.5898-8.7148 2.418-13.238 2.4492-10.531 0-20.633-4.1836-28.082-11.633-7.4492-7.4453-11.633-17.551-11.633-28.082 0.035156-4.5234 0.86328-9.0039 2.4492-13.238 3.5625-11.059 11.859-19.961 22.637-24.293 4.5508-1.8164 9.4023-2.7383 14.301-2.7148 10.531 0 20.633 4.1836 28.082 11.633s11.633 17.551 11.633 28.082c0.13672 5.0156-0.71875 10.012-2.5156 14.695z"/>
 </g>
</svg>
