<?xml version="1.0" encoding="UTF-8"?>
<svg xmlns="http://www.w3.org/2000/svg" xmlns:xlink="http://www.w3.org/1999/xlink" width="100px" height="100px" viewBox="0 0 100 100" version="1.1">
<g id="surface1">
<path class="tile-background" d="M 98.683594 98.683594 L 1.316406 98.683594 L 1.316406 1.316406 L 98.683594 1.316406 Z M 98.683594 98.683594 "/>
<path style=" stroke:none;fill-rule:nonzero;fill:rgb(45.882353%,45.882353%,45.882353%);fill-opacity:1;" d="M 99.988281 0 C 99.996094 0 100 0.00390625 100 0.0117188 L 100 99.988281 C 100 99.996094 99.996094 100 99.988281 100 L 0.0117188 100 C 0.00390625 100 0 99.996094 0 99.988281 L 0 0.0117188 C 0 0.00390625 0.00390625 0 0.0117188 0 L 99.988281 0 M 97.367188 2.632812 L 2.632812 2.632812 L 2.632812 97.367188 L 97.367188 97.367188 Z M 97.367188 2.632812 "/>
<path style=" stroke:none;fill-rule:nonzero;fill:rgb(0%,0%,100%);fill-opacity:1;" d="M 53.757812 11.746094 L 23.683594 34.304688 L 23.683594 41.824219 L 42.480469 41.824219 L 42.480469 71.898438 L 23.683594 71.898438 L 23.683594 86.933594 L 76.316406 86.933594 L 76.316406 71.898438 L 61.277344 71.898438 L 61.277344 11.746094 Z M 53.757812 11.746094 "/>
</g>
</svg>
