<?xml version="1.0" encoding="UTF-8"?>
<svg xmlns="http://www.w3.org/2000/svg" xmlns:xlink="http://www.w3.org/1999/xlink" width="100px" height="100px" viewBox="0 0 100 100" version="1.1">
<g id="surface1">
<path class="tile-background" d="M 98.683594 98.683594 L 1.316406 98.683594 L 1.316406 1.316406 L 98.683594 1.316406 Z M 98.683594 98.683594 "/>
<path style=" stroke:none;fill-rule:nonzero;fill:rgb(45.882353%,45.882353%,45.882353%);fill-opacity:1;" d="M 99.988281 0 C 99.996094 0 100 0.00390625 100 0.0117188 L 100 99.988281 C 100 99.996094 99.996094 100 99.988281 100 L 0.0117188 100 C 0.00390625 100 0 99.996094 0 99.988281 L 0 0.0117188 C 0 0.00390625 0.00390625 0 0.0117188 0 L 99.988281 0 M 97.367188 2.632812 L 2.632812 2.632812 L 2.632812 97.367188 L 97.367188 97.367188 Z M 97.367188 2.632812 "/>
<path style=" stroke:none;fill-rule:nonzero;fill:rgb(0%,50.980392%,0%);fill-opacity:1;" d="M 67.441406 34.386719 L 67.441406 28.40625 C 67.441406 26.375 65.742188 24.726562 63.636719 24.726562 L 36.042969 24.726562 C 33.949219 24.726562 32.238281 26.375 32.238281 28.40625 L 32.238281 34.386719 L 11.304688 34.386719 L 11.304688 26.570312 C 11.304688 18.433594 18.128906 11.84375 26.53125 11.84375 L 73.152344 11.84375 C 81.558594 11.84375 88.375 18.433594 88.375 26.566406 C 88.375 31.914062 90.070312 37.683594 85.058594 41.589844 C 81.574219 44.300781 77.230469 46.617188 73.535156 49.144531 C 64.335938 55.429688 55.003906 61.554688 45.78125 67.816406 C 44.585938 68.632812 40.902344 72.125 39.375 72.125 C 39.390625 72.125 88.851562 72.125 88.851562 72.125 L 88.851562 86.84375 L 11.542969 86.84375 C 11.542969 80.882812 9.433594 73.863281 14.976562 69.402344 C 18.859375 66.28125 23.890625 63.726562 28.046875 60.847656 C 38.574219 53.535156 49.441406 46.664062 60.003906 39.394531 C 60.773438 38.863281 67.441406 35.359375 67.441406 34.386719 Z M 67.441406 34.386719 "/>
</g>
</svg>
