<?xml version="1.0" encoding="UTF-8"?>
<svg xmlns="http://www.w3.org/2000/svg" xmlns:xlink="http://www.w3.org/1999/xlink" width="100px" height="100px" viewBox="0 0 100 100" version="1.1">
<g id="surface1">
<path class="tile-background" d="M 98.683594 98.683594 L 1.316406 98.683594 L 1.316406 1.316406 L 98.683594 1.316406 Z M 98.683594 98.683594 "/>
<path style=" stroke:none;fill-rule:nonzero;fill:rgb(45.882353%,45.882353%,45.882353%);fill-opacity:1;" d="M 99.988281 0 C 99.996094 0 100 0.00390625 100 0.0117188 L 100 99.988281 C 100 99.996094 99.996094 100 99.988281 100 L 0.0117188 100 C 0.00390625 100 0 99.996094 0 99.988281 L 0 0.0117188 C 0 0.00390625 0.00390625 0 0.0117188 0 L 99.988281 0 M 97.367188 2.632812 L 2.632812 2.632812 L 2.632812 97.367188 L 97.367188 97.367188 Z M 97.367188 2.632812 "/>
<path style=" stroke:none;fill-rule:nonzero;fill:rgb(100%,0%,0%);fill-opacity:1;" d="M 87.265625 26.84375 C 87.265625 18.558594 80.550781 11.84375 72.265625 11.84375 L 12.734375 11.84375 L 12.734375 25.90625 L 63.828125 25.90625 C 65.902344 25.90625 67.578125 27.582031 67.578125 29.65625 L 67.578125 38.09375 C 67.578125 40.15625 65.902344 41.84375 63.828125 41.84375 L 35.234375 41.84375 L 35.234375 58.71875 L 63.828125 58.71875 C 65.902344 58.71875 67.578125 60.394531 67.578125 62.46875 L 67.578125 70.90625 C 67.578125 72.972656 65.902344 74.65625 63.828125 74.65625 L 12.734375 74.65625 L 12.734375 86.84375 L 72.265625 86.84375 C 80.550781 86.84375 87.265625 80.117188 87.265625 71.84375 L 87.265625 57.777344 C 87.265625 54.652344 86.304688 51.746094 84.664062 49.34375 C 86.304688 46.929688 87.265625 44.03125 87.265625 40.902344 Z M 87.265625 26.84375 "/>
</g>
</svg>
