<?xml version="1.0" encoding="UTF-8"?>
<svg xmlns="http://www.w3.org/2000/svg" xmlns:xlink="http://www.w3.org/1999/xlink" width="100px" height="100px" viewBox="0 0 100 100" version="1.1">
<g id="surface1">
<path style=" stroke:none;fill-rule:nonzero;fill:rgb(72.54902%,72.54902%,72.54902%);fill-opacity:1;" d="M 98.683594 98.683594 L 1.316406 98.683594 L 1.316406 1.316406 L 98.683594 1.316406 Z M 98.683594 98.683594 "/>
<path style=" stroke:none;fill-rule:nonzero;fill:rgb(45.882353%,45.882353%,45.882353%);fill-opacity:1;" d="M 99.988281 0 C 99.996094 0 100 0.00390625 100 0.0117188 L 100 99.988281 C 100 99.996094 99.996094 100 99.988281 100 L 0.0117188 100 C 0.00390625 100 0 99.996094 0 99.988281 L 0 0.0117188 C 0 0.00390625 0.00390625 0 0.0117188 0 L 99.988281 0 M 97.367188 2.632812 L 2.632812 2.632812 L 2.632812 97.367188 L 97.367188 97.367188 Z M 97.367188 2.632812 "/>
<path style=" stroke:none;fill-rule:nonzero;fill:rgb(0%,0%,51.764706%);fill-opacity:1;" d="M 33.949219 11.84375 L 9.109375 56.269531 L 62.609375 56.269531 L 62.609375 86.84375 L 83.628906 86.363281 L 83.628906 56.269531 L 90.890625 56.269531 L 90.890625 41.9375 L 83.628906 41.9375 L 83.628906 11.84375 L 62.609375 11.84375 L 62.609375 42.414062 L 38.410156 42.414062 L 54.964844 11.84375 Z M 33.949219 11.84375 "/>
</g>
</svg>
