<?xml version="1.0" encoding="UTF-8"?>
<svg xmlns="http://www.w3.org/2000/svg" xmlns:xlink="http://www.w3.org/1999/xlink" width="100px" height="100px" viewBox="0 0 100 100" version="1.1">
<g id="surface1">
<path style=" stroke:none;fill-rule:nonzero;fill:rgb(72.54902%,72.54902%,72.54902%);fill-opacity:1;" d="M 98.683594 98.683594 L 1.316406 98.683594 L 1.316406 1.316406 L 98.683594 1.316406 Z M 98.683594 98.683594 "/>
<path style=" stroke:none;fill-rule:nonzero;fill:rgb(45.882353%,45.882353%,45.882353%);fill-opacity:1;" d="M 99.988281 0 C 99.996094 0 100 0.00390625 100 0.0117188 L 100 99.988281 C 100 99.996094 99.996094 100 99.988281 100 L 0.0117188 100 C 0.00390625 100 0 99.996094 0 99.988281 L 0 0.0117188 C 0 0.00390625 0.00390625 0 0.0117188 0 L 99.988281 0 M 97.367188 2.632812 L 2.632812 2.632812 L 2.632812 97.367188 L 97.367188 97.367188 Z M 97.367188 2.632812 "/>
<path style=" stroke:none;fill-rule:nonzero;fill:rgb(51.764706%,0%,0%);fill-opacity:1;" d="M 79.972656 42.191406 C 82.296875 43.1875 83.929688 44.460938 85.066406 46.035156 C 86.804688 48.453125 87.347656 51.578125 87.347656 55.429688 C 87.347656 55.445312 87.347656 69.492188 87.347656 69.492188 C 87.347656 77.769531 84.066406 85.914062 72.347656 86.839844 L 12.496094 86.839844 L 12.496094 72.304688 L 63.910156 72.304688 C 65.984375 72.304688 67.660156 70.625 67.660156 68.554688 L 67.660156 60.121094 C 67.660156 58.054688 65.984375 56.367188 63.910156 56.367188 L 12.496094 56.382812 L 12.496094 11.84375 L 87.503906 11.84375 L 87.503906 26.839844 L 34.25 26.839844 L 34.25 42.191406 "/>
</g>
</svg>
