<?xml version="1.0" encoding="UTF-8"?>
<svg xmlns="http://www.w3.org/2000/svg" xmlns:xlink="http://www.w3.org/1999/xlink" width="100px" height="100px" viewBox="0 0 100 100" version="1.1">
<g id="surface1">
<path style=" stroke:none;fill-rule:nonzero;fill:rgb(72.54902%,72.54902%,72.54902%);fill-opacity:1;" d="M 98.683594 98.683594 L 1.316406 98.683594 L 1.316406 1.316406 L 98.683594 1.316406 Z M 98.683594 98.683594 "/>
<path style=" stroke:none;fill-rule:nonzero;fill:rgb(45.882353%,45.882353%,45.882353%);fill-opacity:1;" d="M 99.988281 0 C 99.996094 0 100 0.00390625 100 0.0117188 L 100 99.988281 C 100 99.996094 99.996094 100 99.988281 100 L 0.0117188 100 C 0.00390625 100 0 99.996094 0 99.988281 L 0 0.0117188 C 0 0.00390625 0.00390625 0 0.0117188 0 L 99.988281 0 M 97.367188 2.632812 L 2.632812 2.632812 L 2.632812 97.367188 L 97.367188 97.367188 Z M 97.367188 2.632812 "/>
<path style=" stroke:none;fill-rule:nonzero;fill:rgb(0%,50.980392%,51.764706%);fill-opacity:1;" d="M 87.96875 31.535156 L 87.96875 26.84375 C 87.96875 18.558594 81.246094 11.84375 72.96875 11.84375 L 27.03125 11.84375 C 18.753906 11.84375 12.03125 18.558594 12.03125 26.84375 L 12.03125 71.839844 C 12.03125 80.117188 18.753906 86.839844 27.03125 86.839844 L 72.96875 86.839844 C 81.246094 86.839844 87.96875 80.117188 87.96875 71.839844 L 87.96875 57.777344 C 87.96875 51.21875 81.492188 41.84375 72.960938 41.84375 L 36.40625 41.84375 C 34.34375 41.84375 32.65625 40.160156 32.65625 38.09375 L 32.65625 29.65625 C 32.65625 27.585938 34.339844 25.90625 36.40625 25.90625 L 63.59375 25.90625 C 65.660156 25.90625 67.34375 27.582031 67.34375 29.65625 L 67.34375 30.980469 Z M 33.59375 62.464844 C 33.59375 60.402344 35.277344 58.714844 37.34375 58.714844 L 64.53125 58.714844 C 66.597656 58.714844 68.28125 60.398438 68.28125 62.464844 L 68.28125 70.902344 C 68.28125 72.96875 66.597656 74.652344 64.53125 74.652344 L 37.34375 74.652344 C 35.277344 74.652344 33.59375 72.96875 33.59375 70.902344 Z M 33.59375 62.464844 "/>
</g>
</svg>
