<?xml version="1.0" encoding="UTF-8"?>
<svg xmlns="http://www.w3.org/2000/svg" xmlns:xlink="http://www.w3.org/1999/xlink" width="100px" height="100px" viewBox="0 0 100 100" version="1.1">
<g id="surface1">
<path style=" stroke:none;fill-rule:nonzero;fill:rgb(72.54902%,72.54902%,72.54902%);fill-opacity:1;" d="M 98.683594 98.683594 L 1.316406 98.683594 L 1.316406 1.316406 L 98.683594 1.316406 Z M 98.683594 98.683594 "/>
<path style=" stroke:none;fill-rule:nonzero;fill:rgb(45.882353%,45.882353%,45.882353%);fill-opacity:1;" d="M 99.988281 0 C 99.996094 0 100 0.00390625 100 0.0117188 L 100 99.988281 C 100 99.996094 99.996094 100 99.988281 100 L 0.0117188 100 C 0.00390625 100 0 99.996094 0 99.988281 L 0 0.0117188 C 0 0.00390625 0.00390625 0 0.0117188 0 L 99.988281 0 M 97.367188 2.632812 L 2.632812 2.632812 L 2.632812 97.367188 L 97.367188 97.367188 Z M 97.367188 2.632812 "/>
<path style=" stroke:none;fill-rule:nonzero;fill:rgb(45.882353%,45.882353%,45.882353%);fill-opacity:1;" d="M 87.96875 40.902344 C 87.96875 44.03125 87.007812 46.929688 85.367188 49.34375 C 87.007812 51.746094 87.96875 54.652344 87.96875 57.777344 L 87.96875 71.84375 C 87.96875 80.117188 81.253906 86.84375 72.96875 86.84375 L 27.03125 86.84375 C 18.753906 86.84375 12.03125 80.117188 12.03125 71.84375 L 12.03125 57.777344 C 12.03125 54.652344 12.992188 51.746094 14.640625 49.34375 C 12.992188 46.929688 12.03125 44.03125 12.03125 40.902344 L 12.03125 26.84375 C 12.03125 18.558594 18.753906 11.84375 27.03125 11.84375 L 72.96875 11.84375 C 81.253906 11.84375 87.96875 18.558594 87.96875 26.84375 Z M 67.34375 29.65625 C 67.34375 27.582031 65.667969 25.90625 63.59375 25.90625 L 36.40625 25.90625 C 34.339844 25.90625 32.65625 27.582031 32.65625 29.65625 L 32.65625 38.09375 C 32.65625 40.15625 34.339844 41.84375 36.40625 41.84375 L 63.59375 41.84375 C 65.664062 41.84375 67.34375 40.160156 67.34375 38.09375 Z M 67.34375 60.59375 C 67.34375 58.519531 65.667969 56.84375 63.59375 56.84375 L 36.40625 56.84375 C 34.339844 56.84375 32.65625 58.519531 32.65625 60.59375 L 32.65625 69.03125 C 32.65625 71.09375 34.339844 72.78125 36.40625 72.78125 L 63.59375 72.78125 C 65.664062 72.78125 67.34375 71.097656 67.34375 69.03125 Z M 67.34375 60.59375 "/>
</g>
</svg>
