<?xml version="1.0" encoding="UTF-8"?>
<svg xmlns="http://www.w3.org/2000/svg" xmlns:xlink="http://www.w3.org/1999/xlink" width="100px" height="100px" viewBox="0 0 100 100" version="1.1">
<g id="surface1">
<path style=" stroke:none;fill-rule:nonzero;fill:rgb(99.215686%,98.823529%,99.215686%);fill-opacity:1;" d="M 0.0117188 0 L 99.988281 0 C 99.996094 0 100 0.00390625 100 0.0117188 L 100 99.988281 C 100 99.996094 99.996094 100 99.988281 100 L 0.0117188 100 C 0.00390625 100 0 99.996094 0 99.988281 L 0 0.0117188 C 0 0.00390625 0.00390625 0 0.0117188 0 Z M 0.0117188 0 "/>
<path style=" stroke:none;fill-rule:nonzero;fill:rgb(45.882353%,45.882353%,45.882353%);fill-opacity:1;" d="M 99.988281 0 C 99.992188 0 100 0.0078125 100 0.0117188 L 100 99.988281 C 100 99.996094 99.992188 100 99.988281 100 L 0.0117188 100 C 0.00390625 100 0 99.996094 0 99.988281 Z M 99.988281 0 "/>
<path class="tile-background" d="M 11.195312 11.183594 L 88.804688 11.183594 L 88.816406 11.195312 L 88.816406 88.804688 L 88.804688 88.816406 L 11.195312 88.816406 L 11.183594 88.804688 L 11.183594 11.195312 Z M 11.195312 11.183594 "/>
<path style=" stroke:none;fill-rule:nonzero;fill:rgb(0%,0%,0%);fill-opacity:1;" d="M 47.367188 73.027344 L 47.367188 21.710938 L 52.632812 21.710938 L 52.632812 73.027344 Z M 47.367188 73.027344 "/>
<path style=" stroke:none;fill-rule:nonzero;fill:rgb(100%,0%,0%);fill-opacity:1;" d="M 52.632812 18.257812 L 25.492188 35.527344 L 52.632812 52.796875 Z M 52.632812 18.257812 "/>
<path style=" stroke:none;fill-rule:nonzero;fill:rgb(0%,0%,0%);fill-opacity:1;" d="M 37.59375 67.925781 L 62.40625 67.925781 L 62.40625 75.164062 L 37.59375 75.164062 Z M 37.59375 67.925781 "/>
<path style=" stroke:none;fill-rule:nonzero;fill:rgb(0%,0%,0%);fill-opacity:1;" d="M 26.609375 74.289062 L 73.390625 74.289062 L 73.390625 83.550781 L 26.609375 83.550781 Z M 26.609375 74.289062 "/>
</g>
</svg>
