<?xml version="1.0" encoding="UTF-8"?>
<svg xmlns="http://www.w3.org/2000/svg" xmlns:xlink="http://www.w3.org/1999/xlink" width="100px" height="100px" viewBox="0 0 100 100" version="1.1">
<g id="surface1">
<rect x="0" y="0" width="100" height="100" style="fill:rgb(72.54902%,72.54902%,72.54902%);fill-opacity:1;stroke:none;"/>
<path style="fill:none;stroke-width:35;stroke-linecap:butt;stroke-linejoin:miter;stroke:rgb(45.882353%,45.882353%,45.882353%);stroke-opacity:1;stroke-miterlimit:4;" d="M 700 600 L 0 600 L 0 -100 L 700 -100 Z M 700 600 " transform="matrix(0.142857,0,0,0.142857,0,14.285714)"/>
<path style=" stroke:none;fill-rule:nonzero;fill:rgb(0%,0%,0%);fill-opacity:1;" d="M 87.636719 51.921875 L 77.027344 51.921875 C 76.5625 46.351562 74.382812 41.066406 70.785156 36.792969 L 73.1875 34.398438 C 73.640625 33.957031 73.902344 33.351562 73.90625 32.71875 C 73.910156 32.082031 73.660156 31.472656 73.210938 31.027344 C 72.761719 30.578125 72.152344 30.332031 71.515625 30.335938 C 70.882812 30.34375 70.277344 30.605469 69.839844 31.0625 L 67.445312 33.453125 C 63.171875 29.855469 57.882812 27.675781 52.316406 27.210938 L 52.316406 16.648438 C 52.316406 15.804688 51.867188 15.023438 51.132812 14.601562 C 50.402344 14.179688 49.5 14.179688 48.769531 14.601562 C 48.039062 15.023438 47.589844 15.804688 47.589844 16.648438 L 47.589844 27.25 C 42.039062 27.722656 36.773438 29.90625 32.515625 33.5 L 30.121094 31.109375 C 29.523438 30.527344 28.660156 30.304688 27.855469 30.523438 C 27.050781 30.746094 26.421875 31.371094 26.199219 32.175781 C 25.976562 32.984375 26.195312 33.84375 26.773438 34.445312 L 29.175781 36.847656 C 25.601562 41.109375 23.433594 46.375 22.972656 51.921875 L 12.363281 51.921875 C 11.519531 51.921875 10.738281 52.371094 10.316406 53.105469 C 9.894531 53.835938 9.894531 54.734375 10.316406 55.46875 C 10.738281 56.199219 11.519531 56.648438 12.363281 56.648438 L 22.972656 56.648438 C 23.457031 62.195312 25.636719 67.457031 29.214844 71.722656 L 26.824219 74.117188 L 26.820312 74.117188 C 26.382812 74.5625 26.136719 75.164062 26.136719 75.789062 C 26.136719 76.417969 26.382812 77.019531 26.820312 77.464844 C 27.265625 77.90625 27.867188 78.152344 28.496094 78.152344 C 29.125 78.152344 29.726562 77.90625 30.167969 77.464844 L 32.5625 75.070312 C 36.828125 78.648438 42.089844 80.828125 47.636719 81.3125 L 47.636719 91.921875 C 47.636719 92.765625 48.085938 93.546875 48.816406 93.96875 C 49.550781 94.390625 50.449219 94.390625 51.183594 93.96875 C 51.914062 93.546875 52.363281 92.765625 52.363281 91.921875 L 52.363281 81.3125 C 57.914062 80.839844 63.179688 78.65625 67.4375 75.0625 L 69.839844 77.464844 C 70.285156 77.90625 70.886719 78.15625 71.511719 78.152344 C 72.140625 78.15625 72.738281 77.910156 73.179688 77.464844 C 73.621094 77.019531 73.871094 76.417969 73.871094 75.789062 C 73.871094 75.160156 73.621094 74.558594 73.179688 74.117188 L 70.785156 71.722656 C 74.378906 67.46875 76.5625 62.199219 77.035156 56.648438 L 87.636719 56.648438 C 88.480469 56.648438 89.261719 56.199219 89.683594 55.46875 C 90.105469 54.734375 90.105469 53.835938 89.683594 53.105469 C 89.261719 52.371094 88.480469 51.921875 87.636719 51.921875 Z M 47.210938 48.140625 L 47.210938 48.136719 C 46.628906 49.6875 45.394531 50.898438 43.832031 51.449219 C 43.230469 51.675781 42.589844 51.792969 41.941406 51.796875 C 40.4375 51.796875 38.996094 51.199219 37.929688 50.136719 C 36.867188 49.074219 36.269531 47.628906 36.269531 46.125 C 36.273438 45.476562 36.390625 44.839844 36.617188 44.234375 C 37.128906 42.652344 38.3125 41.382812 39.851562 40.761719 C 40.503906 40.503906 41.195312 40.371094 41.894531 40.375 C 43.398438 40.375 44.84375 40.972656 45.90625 42.035156 C 46.972656 43.101562 47.570312 44.542969 47.570312 46.046875 C 47.589844 46.765625 47.464844 47.480469 47.210938 48.148438 Z M 47.210938 48.140625 "/>
<path style="fill-rule:nonzero;fill:rgb(0%,0%,0%);fill-opacity:1;stroke-width:30;stroke-linecap:butt;stroke-linejoin:miter;stroke:rgb(100%,0%,0%);stroke-opacity:1;stroke-miterlimit:4;" d="M 29.996094 -70.003906 L 670.003906 570.003906 " transform="matrix(0.142857,0,0,0.142857,0,14.285714)"/>
<path style="fill-rule:nonzero;fill:rgb(0%,0%,0%);fill-opacity:1;stroke-width:30;stroke-linecap:butt;stroke-linejoin:miter;stroke:rgb(100%,0%,0%);stroke-opacity:1;stroke-miterlimit:4;" d="M 670.003906 -70.003906 L 29.996094 570.003906 " transform="matrix(0.142857,0,0,0.142857,0,14.285714)"/>
</g>
</svg>
